<?xml version="1.0" standalone="no"?><!DOCTYPE svg PUBLIC "-//W3C//DTD SVG 1.1//EN" "http://www.w3.org/Graphics/SVG/1.1/DTD/svg11.dtd"><svg t="1709611372147" class="icon" viewBox="0 0 1024 1024" version="1.1" xmlns="http://www.w3.org/2000/svg" p-id="3507" xmlns:xlink="http://www.w3.org/1999/xlink" width="200" height="200"><path d="M512 1018.55845398c189.95942066-75.98376848 316.59903332-183.62743986 379.91884021-316.59903332 82.31574929-158.29951666 101.31169057-341.92695652 63.31980688-557.21430039L512 5.44154602 68.76135291 151.07710108c-37.99188368 208.95536194-18.9959424 392.58280181 56.98782608 550.88231958C195.40096668 834.93101412 322.04057934 942.5746855 512 1018.55845398z m-329.26299493-341.92695652C113.08521739 537.3279232 94.08927499 379.02840542 125.74917899 195.40096668L512 68.76135291l386.25082101 126.63961377c25.3279232 183.62743986 6.3319808 341.92695652-63.31980689 474.89854998-56.98782608 113.97565218-164.63149746 202.62338115-322.93101412 272.27516884-164.63149746-63.31980689-272.27516883-158.29951666-329.26299493-265.94318804z" fill="#23c6cb" p-id="3508"></path><path d="M512 644.97159458L296.71265725 429.68425071l50.65584529-44.32386448L512 549.99188368 739.95130434 322.04057934l50.65584529 44.3238656z" fill="#23c6cb" p-id="3509"></path></svg>